<?xml version="1.0" encoding="utf-8"?>
<!-- Generator: Adobe Illustrator 22.0.1, SVG Export Plug-In . SVG Version: 6.00 Build 0)  -->
<svg version="1.1" id="Layer_1" xmlns="http://www.w3.org/2000/svg" xmlns:xlink="http://www.w3.org/1999/xlink" x="0px" y="0px"
	 viewBox="0 0 149.48 40.33" style="enable-background:new 0 0 149.48 40.33;" xml:space="preserve">
<g>
	<path style="fill:#0E0000;" d="M4.81,33.23C3.57,32.72,2.6,32,1.89,31.06c-0.7-0.93-1.13-2.02-1.29-3.25l-0.02-0.17l4.63-0.02
		l0.04,0.17c0.18,0.87,0.6,1.54,1.27,2.02c0.66,0.48,1.59,0.71,2.79,0.7c0.77,0,1.42-0.1,1.96-0.29c0.54-0.19,0.96-0.47,1.25-0.84
		c0.29-0.37,0.44-0.8,0.44-1.29l0-0.02c0-0.59-0.21-1.07-0.61-1.44c-0.41-0.37-1.13-0.67-2.18-0.91L6.84,25
		c-1.92-0.41-3.36-1.08-4.33-2.02c-0.97-0.94-1.46-2.15-1.46-3.64l0-0.02c-0.01-1.22,0.32-2.29,0.99-3.22
		c0.66-0.92,1.6-1.64,2.8-2.17c1.21-0.52,2.61-0.79,4.21-0.79c1.66-0.01,3.09,0.26,4.28,0.81c1.19,0.55,2.11,1.29,2.76,2.22
		c0.65,0.93,1.01,1.97,1.06,3.13l0.02,0.21l-4.38,0.02l-0.02-0.15c-0.1-0.81-0.47-1.47-1.11-1.99c-0.63-0.52-1.5-0.78-2.59-0.77
		c-0.69,0-1.29,0.11-1.8,0.31c-0.51,0.2-0.9,0.49-1.17,0.86c-0.27,0.37-0.4,0.8-0.4,1.29v0.02c0,0.57,0.22,1.04,0.66,1.43
		c0.44,0.39,1.17,0.7,2.21,0.93l3.33,0.72c2.08,0.46,3.56,1.11,4.45,1.97c0.89,0.86,1.33,2.01,1.34,3.46l0,0.02
		c0.01,1.26-0.35,2.37-1.06,3.32c-0.71,0.95-1.7,1.7-2.96,2.22c-1.26,0.53-2.71,0.8-4.35,0.81C7.56,33.99,6.06,33.74,4.81,33.23"/>
	<path style="fill:#0E0000;" d="M22.8,40.11c-0.43-0.04-0.8-0.09-1.09-0.14l-0.02-3.57c0.18,0.02,0.4,0.06,0.66,0.09
		c0.26,0.04,0.57,0.05,0.91,0.05c0.91,0,1.62-0.16,2.15-0.47c0.53-0.31,0.94-0.89,1.24-1.73l0.28-0.81l-7.3-20.01l5.12-0.02
		l5.07,16.98l-0.72-0.98l1,0l-0.71,0.99l4.91-17.03l4.95-0.02l-7.12,20.74c-0.5,1.46-1.1,2.64-1.82,3.51
		c-0.71,0.88-1.58,1.51-2.59,1.9c-1.01,0.39-2.21,0.59-3.6,0.59C23.68,40.17,23.23,40.15,22.8,40.11"/>
	<path style="fill:#0E0000;" d="M42.2,13.4l4.69-0.02l0.02,3.14h0.11c0.51-1.09,1.28-1.95,2.3-2.6c1.02-0.65,2.29-0.98,3.8-0.98
		c2.2-0.01,3.91,0.65,5.12,1.98c1.21,1.33,1.82,3.15,1.83,5.47l0.06,12.96l-4.7,0.02l-0.06-12.02c-0.01-1.42-0.35-2.52-1.02-3.29
		c-0.67-0.77-1.68-1.15-3.01-1.15c-0.89,0-1.67,0.21-2.34,0.63c-0.67,0.41-1.18,0.98-1.54,1.71c-0.36,0.72-0.54,1.57-0.54,2.54
		l0.06,11.62l-4.69,0.02L42.2,13.4z"/>
	<path style="fill:#0E0000;" d="M68.4,32.44c-1.45-0.83-2.58-2.02-3.39-3.57s-1.22-3.4-1.23-5.56v-0.04
		c-0.01-2.14,0.38-3.99,1.18-5.55c0.8-1.56,1.92-2.76,3.36-3.61c1.44-0.84,3.14-1.27,5.08-1.28c1.95-0.01,3.66,0.4,5.12,1.23
		c1.46,0.83,2.59,2.02,3.41,3.56c0.81,1.54,1.23,3.4,1.24,5.55v0.04c0.01,2.17-0.38,4.03-1.17,5.59c-0.79,1.56-1.91,2.76-3.36,3.6
		c-1.44,0.84-3.15,1.26-5.11,1.27C71.56,33.68,69.85,33.27,68.4,32.44 M76.11,29.09c0.73-0.52,1.29-1.28,1.68-2.27
		c0.39-0.99,0.58-2.19,0.58-3.58V23.2c-0.01-1.39-0.21-2.57-0.62-3.55c-0.41-0.98-0.98-1.73-1.72-2.24
		c-0.74-0.51-1.61-0.77-2.6-0.76c-0.97,0.01-1.82,0.27-2.56,0.79c-0.73,0.52-1.3,1.27-1.71,2.26c-0.41,0.98-0.6,2.17-0.6,3.55v0.04
		c0.01,1.4,0.22,2.59,0.63,3.58c0.41,0.99,0.99,1.74,1.73,2.25c0.74,0.51,1.61,0.77,2.6,0.76C74.52,29.87,75.38,29.61,76.11,29.09"
		/>
	<path style="fill:#0E0000;" d="M90.04,32.34c-1.24-0.83-2.21-2.03-2.89-3.59c-0.68-1.56-1.03-3.41-1.04-5.55v-0.02
		c-0.01-2.15,0.32-4.01,0.99-5.57c0.67-1.56,1.63-2.76,2.86-3.6c1.23-0.84,2.68-1.27,4.36-1.28c1.42-0.01,2.68,0.33,3.78,1.01
		c1.09,0.68,1.93,1.62,2.5,2.81h0.11l-0.05-10.68l4.68-0.02l0.13,27.27l-4.68,0.02l-0.02-3.4h-0.11c-0.56,1.19-1.38,2.12-2.44,2.8
		c-1.07,0.68-2.33,1.02-3.77,1.03C92.76,33.58,91.29,33.17,90.04,32.34 M98.41,28.81c0.74-0.53,1.32-1.28,1.73-2.26
		c0.41-0.97,0.61-2.11,0.61-3.42v-0.02c-0.01-1.31-0.22-2.45-0.65-3.41c-0.43-0.96-1.01-1.71-1.75-2.23
		c-0.74-0.53-1.59-0.79-2.56-0.78c-1.01,0-1.88,0.27-2.61,0.8c-0.74,0.53-1.3,1.27-1.69,2.23c-0.39,0.96-0.58,2.11-0.58,3.44v0.02
		c0.01,1.32,0.21,2.47,0.61,3.44c0.4,0.97,0.97,1.71,1.71,2.23c0.74,0.52,1.61,0.78,2.62,0.77C96.81,29.61,97.67,29.34,98.41,28.81"
		/>
	<path style="fill:#0E0000;" d="M113.29,32.58c-1.03-0.59-1.82-1.45-2.36-2.57c-0.55-1.12-0.82-2.45-0.83-3.98l-0.06-12.96
		l4.69-0.02l0.06,12.02c0.01,1.42,0.35,2.52,1.02,3.29c0.67,0.77,1.68,1.15,3.03,1.15c0.89,0,1.67-0.21,2.33-0.63
		c0.66-0.41,1.17-0.98,1.53-1.72c0.36-0.73,0.54-1.58,0.54-2.55l-0.05-11.6l4.7-0.02l0.1,20.03l-4.7,0.02l-0.01-3.14l-0.09,0
		c-0.51,1.07-1.28,1.93-2.29,2.58c-1.02,0.65-2.29,0.98-3.81,0.98C115.57,33.47,114.32,33.18,113.29,32.58"/>
	<path style="fill:#0E0000;" d="M135.92,32.6c-1.24-0.51-2.22-1.23-2.92-2.17c-0.7-0.94-1.13-2.02-1.29-3.25l-0.02-0.17l4.63-0.02
		l0.04,0.17c0.18,0.87,0.6,1.54,1.27,2.02c0.66,0.48,1.59,0.71,2.79,0.7c0.77,0,1.42-0.1,1.96-0.29c0.54-0.19,0.96-0.47,1.25-0.84
		c0.29-0.37,0.44-0.8,0.44-1.29v-0.02c0-0.59-0.21-1.07-0.61-1.44c-0.41-0.37-1.13-0.67-2.18-0.91l-3.33-0.72
		c-1.92-0.41-3.36-1.08-4.33-2.02c-0.97-0.94-1.46-2.15-1.46-3.64v-0.02c-0.01-1.22,0.32-2.29,0.99-3.22
		c0.66-0.92,1.6-1.65,2.81-2.17c1.21-0.52,2.61-0.79,4.21-0.8c1.66-0.01,3.09,0.26,4.28,0.81c1.19,0.55,2.11,1.29,2.76,2.22
		c0.65,0.93,1.01,1.97,1.06,3.13l0.02,0.21l-4.38,0.02l-0.02-0.15c-0.1-0.81-0.47-1.47-1.11-1.99c-0.63-0.52-1.5-0.78-2.59-0.77
		c-0.69,0-1.29,0.11-1.8,0.31c-0.51,0.2-0.9,0.49-1.17,0.86c-0.27,0.37-0.4,0.8-0.4,1.29v0.02c0,0.57,0.22,1.04,0.66,1.43
		c0.44,0.39,1.17,0.7,2.21,0.93l3.33,0.72c2.08,0.46,3.56,1.11,4.45,1.97c0.89,0.86,1.33,2.01,1.34,3.46V27
		c0.01,1.26-0.35,2.37-1.06,3.32c-0.71,0.95-1.7,1.7-2.96,2.23c-1.26,0.53-2.71,0.8-4.35,0.81
		C138.66,33.36,137.17,33.11,135.92,32.6"/>
	<path style="fill:#CC200D;" d="M128.5,3.67c0,1.86-1.51,3.37-3.37,3.37c-1.86,0-3.37-1.51-3.37-3.37c0-1.86,1.51-3.37,3.37-3.37
		C126.99,0.3,128.5,1.81,128.5,3.67"/>
	<path style="fill:#CC200D;" d="M117.24,3.53c0,1.86-1.51,3.37-3.37,3.37c-1.86,0-3.37-1.51-3.37-3.37c0-1.86,1.51-3.37,3.37-3.37
		C115.73,0.17,117.24,1.67,117.24,3.53"/>
</g>
</svg>
